<?xml version="1.0" standalone="no"?>
<!DOCTYPE svg PUBLIC "-//W3C//DTD SVG 20010904//EN"
 "http://www.w3.org/TR/2001/REC-SVG-20010904/DTD/svg10.dtd">
<svg version="1.0" xmlns="http://www.w3.org/2000/svg"
 width="205.000000pt" height="205.000000pt" viewBox="0 0 205.000000 205.000000"
 preserveAspectRatio="xMidYMid meet">
<metadata>
Created by potrace 1.11, written by Peter Selinger 2001-2013
</metadata>
<g transform="translate(0.000000,205.000000) scale(0.100000,-0.100000)"
fill="#000000" stroke="none">
<path d="M939 1920 c-92 -6 -159 -23 -159 -41 0 -4 -20 -18 -46 -31 -67 -34
-167 -126 -199 -183 -16 -27 -43 -72 -61 -100 -28 -43 -33 -62 -39 -137 l-7
-88 -124 0 -124 0 0 -170 0 -170 125 0 125 0 0 -140 c0 -77 -4 -140 -9 -140
-5 0 -11 -22 -15 -48 -6 -45 -54 -122 -76 -122 -5 0 -21 -11 -36 -25 -21 -20
-38 -25 -75 -25 l-49 0 0 -175 0 -175 69 0 c39 0 73 5 76 10 3 6 13 10 21 10
22 0 124 48 124 59 0 5 12 12 26 15 28 7 184 160 184 181 0 7 8 23 18 36 24
32 58 122 71 187 6 29 11 120 11 202 l0 150 125 0 125 0 0 170 0 170 -125 0
c-103 0 -125 3 -125 15 0 35 53 126 92 160 82 69 142 84 241 56 57 -15 74 -26
105 -62 20 -23 47 -63 59 -88 22 -45 23 -55 23 -366 1 -476 17 -544 160 -704
36 -40 85 -84 110 -98 25 -13 67 -37 93 -52 28 -16 79 -33 120 -40 40 -7 82
-15 95 -18 l22 -5 0 181 0 181 -33 0 c-51 0 -146 62 -187 122 l-35 51 -5 401
-5 401 -29 70 c-35 82 -83 151 -155 220 -65 62 -122 94 -251 141 -67 25 -84
26 -251 14z"/>
</g>
</svg>
