<?xml version="1.0" standalone="no"?>
<!DOCTYPE svg PUBLIC "-//W3C//DTD SVG 20010904//EN"
 "http://www.w3.org/TR/2001/REC-SVG-20010904/DTD/svg10.dtd">
<svg version="1.0" xmlns="http://www.w3.org/2000/svg"
 width="855.000000pt" height="855.000000pt" viewBox="0 0 855.000000 855.000000"
 preserveAspectRatio="xMidYMid meet">
<metadata>
Created by potrace 1.11, written by Peter Selinger 2001-2013
</metadata>
<g transform="translate(0.000000,855.000000) scale(0.100000,-0.100000)"
fill="#000000" stroke="none">
<path d="M3330 7805 c0 -20 -5 -25 -25 -25 -20 0 -25 -5 -25 -25 0 -24 -2 -25
-70 -25 -63 0 -70 -2 -70 -20 0 -17 -7 -20 -45 -20 -41 0 -45 -2 -45 -25 0
-23 -3 -25 -50 -25 -47 0 -50 -2 -50 -25 0 -23 -4 -25 -44 -25 -39 0 -45 -3
-48 -22 -2 -15 -11 -24 -25 -26 -15 -2 -23 -10 -23 -23 0 -14 -7 -19 -25 -19
-20 0 -25 -5 -25 -25 0 -23 -4 -25 -44 -25 -39 0 -45 -3 -48 -22 -2 -15 -11
-24 -25 -26 -17 -3 -23 -10 -23 -28 0 -19 -5 -24 -25 -24 -18 0 -25 -5 -25
-19 0 -13 -8 -21 -22 -23 -15 -2 -24 -11 -26 -25 -2 -15 -10 -23 -22 -23 -12
0 -20 -8 -22 -22 -2 -15 -11 -24 -25 -26 -17 -3 -23 -10 -23 -28 0 -19 -5 -24
-25 -24 -23 0 -25 -4 -25 -45 0 -41 -2 -45 -25 -45 -20 0 -25 -5 -25 -25 0
-18 -5 -25 -19 -25 -15 0 -20 -10 -25 -45 -6 -36 -11 -45 -27 -45 -14 0 -19
-7 -19 -25 0 -20 -5 -25 -25 -25 -23 0 -25 -3 -25 -50 0 -47 -2 -50 -25 -50
-23 0 -25 -4 -25 -44 0 -39 -3 -45 -22 -48 -21 -3 -23 -9 -26 -70 -3 -60 -5
-68 -22 -68 -17 0 -20 -7 -20 -50 0 -47 -2 -50 -25 -50 -24 0 -25 -2 -25 -70
0 -68 -1 -70 -25 -70 -25 0 -25 0 -25 -94 0 -90 -1 -95 -22 -98 -22 -3 -23 -6
-26 -145 -2 -135 -4 -143 -22 -143 -19 0 -20 -7 -20 -165 l0 -165 -25 0 c-20
0 -25 -5 -25 -25 l0 -25 -525 0 -525 0 0 -640 0 -640 523 -2 522 -3 3 -22 c3
-17 10 -23 28 -23 l24 0 0 -760 0 -760 -25 0 c-24 0 -25 -2 -25 -75 0 -73 -1
-75 -25 -75 -23 0 -25 -4 -25 -44 0 -39 -3 -45 -22 -48 -15 -2 -24 -11 -26
-26 -2 -14 -10 -22 -22 -22 -12 0 -20 -8 -22 -23 -2 -14 -11 -23 -25 -25 -14
-2 -23 -11 -25 -25 -2 -14 -11 -23 -25 -25 -15 -2 -23 -10 -23 -22 0 -12 -8
-20 -22 -22 -15 -2 -24 -11 -26 -26 -3 -19 -9 -22 -48 -22 -40 0 -44 -2 -44
-25 0 -20 -5 -25 -25 -25 -20 0 -25 -5 -25 -25 0 -24 -2 -25 -70 -25 -63 0
-70 -2 -70 -20 0 -17 -8 -19 -72 -22 -67 -3 -73 -5 -76 -25 -3 -21 -9 -22 -95
-25 -87 -3 -92 -4 -95 -25 -3 -21 -8 -23 -73 -23 l-69 0 0 -570 0 -570 405 0
405 0 0 25 c0 20 5 25 25 25 18 0 25 5 25 19 0 20 34 31 101 31 32 0 39 4 39
19 0 17 8 20 48 23 40 3 47 6 50 26 3 19 9 22 48 22 40 0 44 2 44 25 0 23 3
25 50 25 43 0 50 3 50 19 0 16 9 21 45 27 35 5 45 10 45 25 0 16 8 19 50 19
47 0 50 2 50 25 0 20 5 25 25 25 20 0 25 5 25 25 0 23 4 25 45 25 41 0 45 2
45 25 0 20 5 25 25 25 18 0 25 5 25 19 0 13 8 21 23 23 14 2 23 11 25 26 2 14
10 22 23 22 14 0 19 7 19 25 0 23 3 25 50 25 47 0 50 2 50 25 0 18 5 25 20 25
13 0 20 7 20 20 0 15 7 20 25 20 23 0 25 3 25 50 0 47 2 50 25 50 20 0 25 5
25 25 0 20 5 25 25 25 18 0 25 5 25 19 0 13 8 21 23 23 19 3 22 10 25 51 3 39
6 47 23 47 16 0 19 7 19 45 0 41 2 45 25 45 20 0 25 5 25 25 0 20 5 25 25 25
24 0 25 2 25 69 0 65 2 70 23 73 19 3 22 10 25 51 3 39 6 47 23 47 17 0 19 8
19 95 0 95 0 95 25 95 l25 0 0 139 c0 137 0 140 23 143 l22 3 3 763 2 762 25
0 c20 0 25 5 25 25 l0 25 495 0 495 0 0 640 0 640 -495 0 -495 0 0 25 c0 20
-5 25 -25 25 l-25 0 0 139 c0 137 0 140 23 143 21 3 22 8 25 96 2 84 4 92 22
92 17 0 20 7 20 50 0 47 2 50 25 50 23 0 25 4 25 45 0 41 2 45 25 45 20 0 25
5 25 25 0 20 5 25 25 25 20 0 25 5 25 25 0 18 5 25 19 25 13 0 21 8 23 23 2
14 11 23 26 25 14 2 22 10 22 23 0 14 7 19 25 19 20 0 25 5 25 25 0 20 5 25
25 25 20 0 25 5 25 25 0 23 4 25 45 25 41 0 45 2 45 25 0 20 5 25 25 25 18 0
25 5 25 19 0 19 39 31 108 31 25 0 32 4 32 20 0 19 7 20 120 20 l120 0 0 25 0
25 120 0 120 0 0 -25 0 -25 140 0 c133 0 140 -1 140 -20 0 -16 7 -20 38 -20
73 0 112 -11 112 -31 0 -16 8 -19 45 -19 41 0 45 -2 45 -25 0 -20 5 -25 25
-25 20 0 25 -5 25 -25 0 -20 5 -25 25 -25 20 0 25 -5 25 -25 0 -20 5 -25 25
-25 18 0 25 -5 25 -20 0 -13 7 -20 20 -20 15 0 20 -7 20 -25 0 -20 5 -25 25
-25 20 0 25 -5 25 -25 0 -20 5 -25 25 -25 20 0 25 -5 25 -25 0 -18 5 -25 19
-25 16 0 21 -9 27 -45 5 -34 11 -45 25 -45 14 0 18 -9 21 -47 3 -41 6 -48 26
-51 19 -3 22 -9 22 -48 0 -40 2 -44 25 -44 25 0 25 0 25 -95 0 -88 1 -95 20
-95 20 0 20 -7 20 -1413 0 -778 3 -1496 7 -1595 6 -168 8 -182 25 -182 16 0
18 -10 18 -120 l0 -120 25 0 c24 0 25 -2 25 -70 0 -68 1 -70 25 -70 24 0 25
-2 25 -70 0 -62 2 -70 19 -70 15 0 20 -10 26 -50 6 -40 11 -50 26 -50 17 0 19
-8 19 -70 0 -68 1 -70 25 -70 20 0 25 -5 25 -25 0 -20 5 -25 25 -25 23 0 25
-4 25 -44 0 -39 3 -45 23 -48 19 -3 22 -10 25 -50 3 -39 7 -48 22 -48 12 0 20
-8 22 -22 2 -15 11 -24 26 -26 19 -3 22 -9 22 -48 0 -40 2 -44 25 -44 20 0 25
-5 25 -25 0 -20 5 -25 25 -25 20 0 25 -5 25 -25 0 -18 5 -25 20 -25 13 0 20
-7 20 -20 0 -15 7 -20 25 -20 20 0 25 -5 25 -25 0 -20 5 -25 25 -25 20 0 25
-5 25 -25 0 -23 4 -25 45 -25 41 0 45 -2 45 -25 0 -20 5 -25 25 -25 18 0 25
-5 25 -19 0 -13 8 -21 23 -23 14 -2 23 -11 25 -25 3 -20 9 -23 48 -23 40 0 44
-2 44 -25 0 -23 3 -25 50 -25 47 0 50 -2 50 -25 0 -23 4 -25 45 -25 38 0 45
-3 45 -19 0 -15 10 -20 50 -26 40 -6 50 -11 50 -26 0 -14 7 -19 25 -19 20 0
25 -5 25 -25 l0 -25 545 0 545 0 0 570 0 570 -95 0 c-95 0 -95 0 -95 25 l0 25
-120 0 -120 0 0 25 c0 24 -2 25 -70 25 -63 0 -70 2 -70 20 0 17 -7 20 -45 20
-41 0 -45 2 -45 25 0 20 -5 25 -25 25 -20 0 -25 5 -25 25 0 20 -5 25 -25 25
-20 0 -25 5 -25 25 0 20 -5 25 -25 25 -18 0 -25 5 -25 19 0 13 -8 21 -22 23
-15 2 -24 11 -26 25 -2 15 -10 23 -23 23 -14 0 -19 7 -19 25 0 20 -5 25 -25
25 -20 0 -25 5 -25 25 0 20 -5 25 -25 25 -23 0 -25 4 -25 45 0 38 -3 45 -19
45 -15 0 -20 10 -26 50 -6 40 -11 50 -26 50 -17 0 -19 8 -19 95 0 95 0 95 -25
95 l-25 0 0 1570 0 1570 -25 0 -25 0 0 120 c0 111 -1 120 -19 120 -20 0 -31
34 -31 101 0 32 -3 39 -20 39 -18 0 -20 7 -20 70 0 68 -1 70 -25 70 -24 0 -25
2 -25 75 0 73 -1 75 -25 75 -23 0 -25 4 -25 45 0 38 -3 45 -19 45 -15 0 -20
10 -26 50 -6 40 -11 50 -26 50 -16 0 -19 7 -19 45 0 41 -2 45 -24 45 -23 0
-25 5 -28 48 -3 40 -6 47 -25 50 -15 2 -23 10 -23 22 0 12 -8 20 -22 22 -20 3
-23 10 -26 51 -3 38 -7 47 -22 47 -12 0 -20 8 -22 23 -2 14 -11 23 -25 25 -15
2 -23 10 -23 23 0 14 -7 19 -25 19 -20 0 -25 5 -25 25 0 20 -5 25 -25 25 -23
0 -25 3 -25 50 l0 50 -45 0 c-38 0 -45 3 -45 20 0 15 -7 20 -25 20 -20 0 -25
5 -25 25 0 20 -5 25 -25 25 -20 0 -25 5 -25 25 0 18 -5 25 -19 25 -13 0 -21 8
-23 23 -3 19 -10 22 -50 25 -39 3 -48 7 -48 22 0 12 -8 20 -22 22 -15 2 -24
11 -26 26 -3 19 -9 22 -48 22 -40 0 -44 2 -44 25 0 23 -3 25 -50 25 -47 0 -50
2 -50 25 0 23 -4 25 -45 25 -38 0 -45 3 -45 19 0 17 -8 20 -47 23 -41 3 -48 6
-51 26 -2 14 -10 22 -23 22 -14 0 -19 7 -19 25 l0 25 -955 0 -955 0 0 -25z"/>
</g>
</svg>
