<?xml version="1.0" standalone="no"?>
<!DOCTYPE svg PUBLIC "-//W3C//DTD SVG 20010904//EN"
 "http://www.w3.org/TR/2001/REC-SVG-20010904/DTD/svg10.dtd">
<svg version="1.0" xmlns="http://www.w3.org/2000/svg"
 width="231.000000pt" height="231.000000pt" viewBox="0 0 231.000000 231.000000"
 preserveAspectRatio="xMidYMid meet">
<metadata>
Created by potrace 1.11, written by Peter Selinger 2001-2013
</metadata>
<g transform="translate(0.000000,231.000000) scale(0.100000,-0.100000)"
fill="#000000" stroke="none">
<path d="M0 1155 l0 -1075 1155 0 1155 0 0 1075 0 1075 -1155 0 -1155 0 0
-1075z m1385 880 c39 -14 94 -40 123 -58 61 -36 182 -152 182 -173 0 -8 4 -14
9 -14 5 0 13 -10 17 -22 4 -13 10 -25 13 -28 10 -7 41 -93 41 -112 0 -9 5 -18
12 -20 9 -3 13 -100 16 -394 2 -214 8 -393 13 -399 5 -5 9 -17 9 -27 0 -10 5
-18 10 -18 6 0 10 -6 10 -13 0 -16 63 -75 107 -100 17 -9 47 -17 67 -17 l36 0
0 -180 c0 -99 -1 -180 -2 -180 -16 0 -172 34 -198 43 -114 39 -289 189 -316
270 -4 9 -9 17 -13 17 -4 0 -15 26 -25 58 -10 31 -23 66 -29 77 -8 14 -13 139
-15 400 -4 376 -4 380 -27 427 -44 88 -116 138 -213 146 -110 9 -207 -48 -256
-153 -42 -87 -45 -85 104 -85 l130 0 0 -170 0 -169 -127 -3 -128 -3 -6 -175
c-7 -190 -14 -229 -59 -326 -28 -58 -108 -170 -135 -186 -6 -3 -26 -20 -45
-37 -19 -17 -40 -31 -47 -31 -6 0 -13 -3 -15 -7 -3 -7 -27 -20 -98 -51 -14 -6
-54 -16 -90 -22 -36 -6 -75 -14 -88 -17 l-22 -5 2 178 3 179 40 6 c51 7 81 23
125 68 55 56 63 69 73 119 16 77 20 281 6 298 -9 11 -39 14 -125 14 l-114 0 0
170 0 170 125 0 125 0 0 44 c0 42 20 125 43 176 16 34 69 122 82 136 6 7 22
25 36 41 73 87 216 161 359 187 61 11 207 -5 275 -29z"/>
</g>
</svg>
